<?xml version="1.0" ?>
<mxfile host="65bd71144e">
	<diagram id="code-graph" name="Page-1">
		<mxGraphModel dx="422" dy="816" grid="1" gridSize="10" guides="1" tooltips="1" connect="1" arrows="1" fold="1" page="1" pageScale="1" pageWidth="850" pageHeight="1100" math="0" shadow="0">
			<root>
				<mxCell id="0"/>
				<mxCell id="1" parent="0"/>
				<mxCell id="5335505680" value="&lt;b&gt;Module&lt;/b&gt;" style="whiteSpace=wrap;html=1;rounded=1;fillColor=#CC99FF;strokeColor=#000000" parent="1" vertex="1">
					<mxGeometry x="409.98" y="0.0" width="120" height="60" as="geometry"/>
				</mxCell>
				<mxCell id="5335513024" value="&lt;b&gt;FunctionDef&lt;/b&gt;&lt;br&gt;name: main" style="whiteSpace=wrap;html=1;rounded=1;fillColor=#CC99FF;strokeColor=#000000" parent="1" vertex="1">
					<mxGeometry x="409.98" y="93.60000000000001" width="120" height="60" as="geometry"/>
				</mxCell>
				<mxCell id="5335507456" value="&lt;b&gt;arguments&lt;/b&gt;" style="whiteSpace=wrap;html=1;rounded=1;fillColor=#E6E6E6;strokeColor=#000000" parent="1" vertex="1">
					<mxGeometry x="202.98" y="187.20000000000002" width="120" height="60" as="geometry"/>
				</mxCell>
				<mxCell id="5335506880" value="&lt;b&gt;Assign&lt;/b&gt;" style="whiteSpace=wrap;html=1;rounded=1;fillColor=#D6FFC9;strokeColor=#000000" parent="1" vertex="1">
					<mxGeometry x="334.98" y="187.20000000000002" width="120" height="60" as="geometry"/>
				</mxCell>
				<mxCell id="5335507024" value="&lt;b&gt;Name&lt;/b&gt;&lt;br&gt;id: l&lt;br&gt;ctx: Store" style="whiteSpace=wrap;html=1;rounded=1;fillColor=#CCE5FF;strokeColor=#000000" parent="1" vertex="1">
					<mxGeometry x="127.98" y="280.8" width="120" height="60" as="geometry"/>
				</mxCell>
				<mxCell id="5335506976" value="&lt;b&gt;List&lt;/b&gt;&lt;br&gt;ctx: Load" style="whiteSpace=wrap;html=1;rounded=1;fillColor=#FFD9B3;strokeColor=#000000" parent="1" vertex="1">
					<mxGeometry x="325.98" y="280.8" width="120" height="60" as="geometry"/>
				</mxCell>
				<mxCell id="5335505344" value="&lt;b&gt;Constant&lt;/b&gt;&lt;br&gt;value: 1" style="whiteSpace=wrap;html=1;rounded=1;fillColor=#FFF2CC;strokeColor=#000000" parent="1" vertex="1">
					<mxGeometry x="188.98" y="374.40000000000003" width="120" height="60" as="geometry"/>
				</mxCell>
				<mxCell id="5335512976" value="&lt;b&gt;Constant&lt;/b&gt;&lt;br&gt;value: 2" style="whiteSpace=wrap;html=1;rounded=1;fillColor=#FFF2CC;strokeColor=#000000" parent="1" vertex="1">
					<mxGeometry x="320.98" y="374.40000000000003" width="120" height="60" as="geometry"/>
				</mxCell>
				<mxCell id="5335507168" value="&lt;b&gt;Expr&lt;/b&gt;" style="whiteSpace=wrap;html=1;rounded=1;fillColor=#FFCCCC;strokeColor=#000000" parent="1" vertex="1">
					<mxGeometry x="471.98" y="187.20000000000002" width="120" height="60" as="geometry"/>
				</mxCell>
				<mxCell id="5335505440" value="&lt;b&gt;Call&lt;/b&gt;" style="whiteSpace=wrap;html=1;rounded=1;fillColor=#FFCCFF;strokeColor=#000000" parent="1" vertex="1">
					<mxGeometry x="490.98" y="280.8" width="120" height="60" as="geometry"/>
				</mxCell>
				<mxCell id="5335501984" value="&lt;b&gt;Attribute&lt;/b&gt;&lt;br&gt;attr: append&lt;br&gt;ctx: Load" style="whiteSpace=wrap;html=1;rounded=1;fillColor=#FFF2CC;strokeColor=#000000" parent="1" vertex="1">
					<mxGeometry x="490.98" y="374.40000000000003" width="120" height="60" as="geometry"/>
				</mxCell>
				<mxCell id="5335507312" value="&lt;b&gt;Name&lt;/b&gt;&lt;br&gt;id: l&lt;br&gt;ctx: Load" style="whiteSpace=wrap;html=1;rounded=1;fillColor=#CCE5FF;strokeColor=#000000" parent="1" vertex="1">
					<mxGeometry x="551.98" y="468.0" width="120" height="60" as="geometry"/>
				</mxCell>
				<mxCell id="4816807600" value="&lt;b&gt;Constant&lt;/b&gt;&lt;br&gt;value: 3" style="whiteSpace=wrap;html=1;rounded=1;fillColor=#FFF2CC;strokeColor=#000000" parent="1" vertex="1">
					<mxGeometry x="622.98" y="374.40000000000003" width="120" height="60" as="geometry"/>
				</mxCell>
				<mxCell id="4816809136" value="&lt;b&gt;Return&lt;/b&gt;" style="whiteSpace=wrap;html=1;rounded=1;fillColor=#D6FFC9;strokeColor=#000000" parent="1" vertex="1">
					<mxGeometry x="655.98" y="187.20000000000002" width="120" height="60" as="geometry"/>
				</mxCell>
				<mxCell id="4796054064" value="&lt;b&gt;Name&lt;/b&gt;&lt;br&gt;id: l&lt;br&gt;ctx: Load" style="whiteSpace=wrap;html=1;rounded=1;fillColor=#CCE5FF;strokeColor=#000000" parent="1" vertex="1">
					<mxGeometry x="695.98" y="468.0" width="120" height="60" as="geometry"/>
				</mxCell>
				<mxCell id="5335505680_5335513024" value="['body', 0]" style="endArrow=classic;html=1;strokeColor=#000000" parent="1" source="5335505680" target="5335513024" edge="1">
					<mxGeometry width="50" height="50" relative="1" as="geometry">
						<mxPoint x="400" y="440" as="sourcePoint"/>
						<mxPoint x="450" y="390" as="targetPoint"/>
					</mxGeometry>
				</mxCell>
				<mxCell id="5335513024_5335507456" value="['args']" style="endArrow=classic;html=1;strokeColor=#000000" parent="1" source="5335513024" target="5335507456" edge="1">
					<mxGeometry width="50" height="50" relative="1" as="geometry">
						<mxPoint x="400" y="440" as="sourcePoint"/>
						<mxPoint x="450" y="390" as="targetPoint"/>
					</mxGeometry>
				</mxCell>
				<mxCell id="5335513024_5335506880" value="['body', 0]" style="endArrow=classic;html=1;strokeColor=#000000" parent="1" source="5335513024" target="5335506880" edge="1">
					<mxGeometry width="50" height="50" relative="1" as="geometry">
						<mxPoint x="400" y="440" as="sourcePoint"/>
						<mxPoint x="450" y="390" as="targetPoint"/>
					</mxGeometry>
				</mxCell>
				<mxCell id="5335506880_5335507024" value="['targets', 0]" style="endArrow=classic;html=1;strokeColor=#000000" parent="1" source="5335506880" target="5335507024" edge="1">
					<mxGeometry width="50" height="50" relative="1" as="geometry">
						<mxPoint x="400" y="440" as="sourcePoint"/>
						<mxPoint x="450" y="390" as="targetPoint"/>
					</mxGeometry>
				</mxCell>
				<mxCell id="5335506880_5335506976" value="['value']" style="endArrow=classic;html=1;strokeColor=#000000" parent="1" source="5335506880" target="5335506976" edge="1">
					<mxGeometry width="50" height="50" relative="1" as="geometry">
						<mxPoint x="400" y="440" as="sourcePoint"/>
						<mxPoint x="450" y="390" as="targetPoint"/>
					</mxGeometry>
				</mxCell>
				<mxCell id="5335506976_5335505344" value="['elts', 0]" style="endArrow=classic;html=1;strokeColor=#000000" parent="1" source="5335506976" target="5335505344" edge="1">
					<mxGeometry width="50" height="50" relative="1" as="geometry">
						<mxPoint x="400" y="440" as="sourcePoint"/>
						<mxPoint x="450" y="390" as="targetPoint"/>
					</mxGeometry>
				</mxCell>
				<mxCell id="5335506976_5335512976" value="['elts', 1]" style="endArrow=classic;html=1;strokeColor=#000000" parent="1" source="5335506976" target="5335512976" edge="1">
					<mxGeometry width="50" height="50" relative="1" as="geometry">
						<mxPoint x="400" y="440" as="sourcePoint"/>
						<mxPoint x="450" y="390" as="targetPoint"/>
					</mxGeometry>
				</mxCell>
				<mxCell id="5335513024_5335507168" value="['body', 1]" style="endArrow=classic;html=1;strokeColor=#000000" parent="1" source="5335513024" target="5335507168" edge="1">
					<mxGeometry width="50" height="50" relative="1" as="geometry">
						<mxPoint x="400" y="440" as="sourcePoint"/>
						<mxPoint x="450" y="390" as="targetPoint"/>
					</mxGeometry>
				</mxCell>
				<mxCell id="5335507168_5335505440" value="['value']" style="endArrow=classic;html=1;strokeColor=#000000" parent="1" source="5335507168" target="5335505440" edge="1">
					<mxGeometry width="50" height="50" relative="1" as="geometry">
						<mxPoint x="400" y="440" as="sourcePoint"/>
						<mxPoint x="450" y="390" as="targetPoint"/>
					</mxGeometry>
				</mxCell>
				<mxCell id="5335505440_5335501984" value="['func']" style="endArrow=classic;html=1;strokeColor=#000000" parent="1" source="5335505440" target="5335501984" edge="1">
					<mxGeometry width="50" height="50" relative="1" as="geometry">
						<mxPoint x="400" y="440" as="sourcePoint"/>
						<mxPoint x="450" y="390" as="targetPoint"/>
					</mxGeometry>
				</mxCell>
				<mxCell id="5335501984_5335507312" value="['value']" style="endArrow=classic;html=1;strokeColor=#000000" parent="1" source="5335501984" target="5335507312" edge="1">
					<mxGeometry width="50" height="50" relative="1" as="geometry">
						<mxPoint x="400" y="440" as="sourcePoint"/>
						<mxPoint x="450" y="390" as="targetPoint"/>
					</mxGeometry>
				</mxCell>
				<mxCell id="5335505440_4816807600" value="['args', 0]" style="endArrow=classic;html=1;strokeColor=#000000" parent="1" source="5335505440" target="4816807600" edge="1">
					<mxGeometry width="50" height="50" relative="1" as="geometry">
						<mxPoint x="400" y="440" as="sourcePoint"/>
						<mxPoint x="450" y="390" as="targetPoint"/>
					</mxGeometry>
				</mxCell>
				<mxCell id="5335513024_4816809136" value="['body', 2]" style="endArrow=classic;html=1;strokeColor=#000000" parent="1" source="5335513024" target="4816809136" edge="1">
					<mxGeometry width="50" height="50" relative="1" as="geometry">
						<mxPoint x="400" y="440" as="sourcePoint"/>
						<mxPoint x="450" y="390" as="targetPoint"/>
					</mxGeometry>
				</mxCell>
				<mxCell id="4816809136_4796054064" value="['value']" style="endArrow=classic;html=1;strokeColor=#000000" parent="1" source="4816809136" target="4796054064" edge="1">
					<mxGeometry width="50" height="50" relative="1" as="geometry">
						<mxPoint x="400" y="440" as="sourcePoint"/>
						<mxPoint x="450" y="390" as="targetPoint"/>
					</mxGeometry>
				</mxCell>
				<mxCell id="stx_l_5335513024" value="&lt;b&gt;SyntaxToken&lt;/b&gt;&lt;br&gt;name: l&lt;br&gt;scope: main" style="whiteSpace=wrap;html=1;rounded=1;fillColor=#66B2FF;strokeColor=#66B2FF" parent="1" vertex="1">
					<mxGeometry x="-150" y="0.0" width="120" height="60" as="geometry"/>
				</mxCell>
				<mxCell id="stx_l_5335513024_5335507024" value="" style="edgeStyle=segmentEdgeStyle;endArrow=classic;html=1;rounded=1;endSize=8;startSize=8;entryX=0.42797822339027236;entryY=0;entryDx=0;entryDy=0;opacity=70;shadow=0;dashed=1;jumpSize=6;strokeColor=#66B2FF" parent="1" source="stx_l_5335513024" target="5335507024" edge="1">
					<mxGeometry width="50" height="50" relative="1" as="geometry">
						<mxPoint x="400" y="440" as="sourcePoint"/>
						<mxPoint x="450" y="390" as="targetPoint"/>
					</mxGeometry>
				</mxCell>
				<mxCell id="stx_l_5335513024_5335507312" value="" style="edgeStyle=segmentEdgeStyle;endArrow=classic;html=1;rounded=1;endSize=8;startSize=8;entryX=0.2925770712195535;entryY=0;entryDx=0;entryDy=0;opacity=70;shadow=0;dashed=1;jumpSize=6;strokeColor=#66B2FF" parent="1" source="stx_l_5335513024" target="5335507312" edge="1">
					<mxGeometry width="50" height="50" relative="1" as="geometry">
						<mxPoint x="400" y="440" as="sourcePoint"/>
						<mxPoint x="450" y="390" as="targetPoint"/>
					</mxGeometry>
				</mxCell>
				<mxCell id="stx_l_5335513024_4796054064" value="" style="edgeStyle=segmentEdgeStyle;endArrow=classic;html=1;rounded=1;endSize=8;startSize=8;entryX=0.3160590264563745;entryY=0;entryDx=0;entryDy=0;opacity=70;shadow=0;dashed=1;jumpSize=6;strokeColor=#66B2FF" parent="1" source="stx_l_5335513024" target="4796054064" edge="1">
					<mxGeometry width="50" height="50" relative="1" as="geometry">
						<mxPoint x="400" y="440" as="sourcePoint"/>
						<mxPoint x="450" y="390" as="targetPoint"/>
					</mxGeometry>
				</mxCell>
			</root>
		</mxGraphModel>
	</diagram>
</mxfile>
